<svg xmlns="http://www.w3.org/2000/svg" viewBox="0 0 61.72 61.72"><defs><style>.cls-1{fill:none;stroke:#231f20;stroke-miterlimit:10;stroke-width:3px;}</style></defs><title>acknowledge</title><g id="Layer_2" data-name="Layer 2"><g id="Layer_1-2" data-name="Layer 1"><path d="M26,30.57A53.55,53.55,0,0,1,30.57,24a8.14,8.14,0,0,0,1.62-5.12V16.4a1.49,1.49,0,0,1,1.65-1.53,6.72,6.72,0,0,1,3.7,1.21,5,5,0,0,1,2,3.79A14,14,0,0,1,38.47,26c-.1.26-.2.52-.28.79s0,.47.32.49H39c1.57,0,3.14,0,4.71,0a3.15,3.15,0,0,1,2.44,1A3.49,3.49,0,0,1,46.84,31a2.93,2.93,0,0,1-1.1,2.29c-.14.1-.08.2,0,.31a3.9,3.9,0,0,1,.1,3.24A2.46,2.46,0,0,1,44.87,38c-.2.13-.16.23-.1.41a3.85,3.85,0,0,1-.3,3.34,2.18,2.18,0,0,1-.77.74.37.37,0,0,0-.2.5,2.73,2.73,0,0,1-1.28,3.19,4.56,4.56,0,0,1-1.94.55,51.66,51.66,0,0,1-6.22-.12,42.74,42.74,0,0,1-7.87-1.18.31.31,0,0,0-.37.12,3.71,3.71,0,0,1-3,1.26c-1.4,0-2.8,0-4.2,0a3.63,3.63,0,0,1-3.38-2,3.79,3.79,0,0,1-.39-1.78c0-3.4,0-6.81,0-10.22a3.59,3.59,0,0,1,3.76-3.73c1.29,0,2.58,0,3.87,0A3.91,3.91,0,0,1,26,30.57Zm.68,7.76c0,1.69,0,3.38,0,5.07,0,.31.09.43.39.5a44,44,0,0,0,5.82.9c2.15.2,4.3.27,6.46.28a3.49,3.49,0,0,0,2.11-.46,1.13,1.13,0,0,0,.36-1.19c-.11-.41-.44-.4-.76-.42l-.24,0A.84.84,0,0,1,40.1,42a.83.83,0,0,1,.82-.77c.3,0,.59,0,.88,0,1.08,0,1.56-.53,1.47-1.6-.06-.77-.29-1-1.06-1l-.4,0a.85.85,0,0,1,.1-1.69c.34,0,.69,0,1,0s1-.1,1.22-.65a2.36,2.36,0,0,0,.13-1.48.86.86,0,0,0-.81-.75l-.56-.07a.88.88,0,0,1-.76-.84.89.89,0,0,1,.7-.85A5.17,5.17,0,0,1,44,32.16a.94.94,0,0,0,.8-.38A2.16,2.16,0,0,0,45,29.72c-.25-.61-.84-.67-1.41-.68H38.8c-1.92,0-2.81-1.29-2.18-3.09.19-.53.39-1.05.56-1.58a11.68,11.68,0,0,0,.62-4.31c-.19-2.26-1.75-3.19-3.58-3.39-.23,0-.29.05-.29.28,0,.51,0,1,0,1.55a12.76,12.76,0,0,1-.44,3.59A12.59,12.59,0,0,1,31.22,26a39.37,39.37,0,0,0-4.39,6.74,1.44,1.44,0,0,0-.15.61C26.69,35,26.69,36.66,26.69,38.33ZM16.62,38v5.11a1.87,1.87,0,0,0,2,2H23a1.85,1.85,0,0,0,2-2Q25,38,25,32.85a1.82,1.82,0,0,0-2-2H18.61a1.83,1.83,0,0,0-2,2Z"/><circle class="cls-1" cx="30.86" cy="30.86" r="29.36"/></g></g></svg>