<svg xmlns="http://www.w3.org/2000/svg" viewBox="0 0 61.72 61.72"><defs><style>.cls-1{fill:none;stroke:#231f20;stroke-miterlimit:10;stroke-width:3px;}</style></defs><title>face</title><g id="Layer_2" data-name="Layer 2"><g id="Layer_1-2" data-name="Layer 1"><circle class="cls-1" cx="30.86" cy="30.86" r="29.36"/><path d="M24.59,26.12c-.1-.36-.21-.7-.29-1.05a10.56,10.56,0,0,1-.16-2.1,11.46,11.46,0,0,1,.54-3.85,1.38,1.38,0,0,1,.25-.55,5.74,5.74,0,0,1,2.26-1.91s.08,0,.08-.07c0-.25.22-.29.4-.34a3.66,3.66,0,0,1,.87-.13.27.27,0,0,0,.21-.06,1.86,1.86,0,0,1,1.55-.51,3.55,3.55,0,0,1,1.06.24.7.7,0,0,0,.35,0,3.18,3.18,0,0,1,.61,0c.09,0,.2,0,.24.05.2.2.38.05.55,0s.15-.06.19,0,.18.2.34.23a1.14,1.14,0,0,1,1.07,1c0,.12.09.07.15.06a3.05,3.05,0,0,1,.85-.11,1,1,0,0,1,.52.12l0,0c-.09.07-.23.1-.21.24s.16.11.25.14a1.87,1.87,0,0,1,.93.87A4.36,4.36,0,0,1,37.6,20a9.6,9.6,0,0,1,0,2.73c-.1.64,0,1.3-.15,1.94a10,10,0,0,1-.29,1.23c0,.12-.08.22.13.18s.35.06.44.29a1.65,1.65,0,0,1,0,1.29,6.31,6.31,0,0,0-.32,1.43,6.59,6.59,0,0,1-.3,1.05.54.54,0,0,1-.62.31c-.14,0-.16,0-.17.16a5.23,5.23,0,0,1-.5,2.33,5.71,5.71,0,0,1-.51.77.84.84,0,0,0-.2.52A23.63,23.63,0,0,0,35.22,37a.7.7,0,0,0,.26.46,9.56,9.56,0,0,0,3.34,1.86,39.26,39.26,0,0,1,5.12,1.88c.26.12.52.27.79.39a1.92,1.92,0,0,1,.85.84,11.13,11.13,0,0,1,1,2.62c.09.31.16.63.25.94,0,.12,0,.16-.12.14H15.12c-.29,0-.29,0-.22-.28a15.83,15.83,0,0,1,1-2.94l0-.05a2.72,2.72,0,0,1,1.4-1.45,40.36,40.36,0,0,1,4.55-1.76,20.43,20.43,0,0,0,2.27-.81,9.94,9.94,0,0,0,2.12-1.39.66.66,0,0,0,.25-.5,23.28,23.28,0,0,0,.07-2.64,1,1,0,0,0-.23-.66,4.67,4.67,0,0,1-1-3c0-.06,0-.12,0-.17s0-.09-.11-.09c-.47,0-.6-.11-.75-.55a7.23,7.23,0,0,1-.3-1.38,3.25,3.25,0,0,0-.2-.74,1.8,1.8,0,0,1-.07-1.25C24,26.16,24.17,26.06,24.59,26.12Z"/></g></g></svg>